<svg xmlns="http://www.w3.org/2000/svg" xmlns:xlink="http://www.w3.org/1999/xlink" width="500" zoomAndPan="magnify" viewBox="0 0 375 374.999991" height="500" preserveAspectRatio="xMidYMid meet" version="1.0"><defs><g/><clipPath id="5837d65816"><path d="M 205 163 L 223 163 L 223 185 L 205 185 Z M 205 163 " clip-rule="nonzero"/></clipPath><clipPath id="0a6e3695cb"><path d="M 208.613281 160.085938 L 224.085938 167.167969 L 214.921875 187.1875 L 199.453125 180.109375 Z M 208.613281 160.085938 " clip-rule="nonzero"/></clipPath><clipPath id="5e1c19bce6"><path d="M 208.613281 160.085938 L 224.085938 167.167969 L 214.921875 187.1875 L 199.453125 180.109375 Z M 208.613281 160.085938 " clip-rule="nonzero"/></clipPath></defs><g fill="#000001" fill-opacity="1"><g transform="translate(56.519572, 268.919716)"><g><path d="M 24.4375 37.90625 C 21.8125 38.59375 20.363281 37.625 20.09375 35 C 19.945312 33.34375 20.15625 31.820312 20.71875 30.4375 C 21.820312 26.988281 23.40625 23.46875 25.46875 19.875 C 27.269531 16.289062 30.238281 11.1875 34.375 4.5625 L 45.5625 -12.015625 C 46.800781 -13.804688 47.695312 -15.804688 48.25 -18.015625 C 49.769531 -26.296875 51.15625 -36.648438 52.40625 -49.078125 L 56.328125 -81.59375 C 56.742188 -84.5 57.257812 -88.78125 57.875 -94.4375 C 58.5 -100.101562 58.953125 -104.316406 59.234375 -107.078125 C 59.503906 -109.421875 60.125 -115.078125 61.09375 -124.046875 C 62.0625 -133.023438 62.960938 -139.929688 63.796875 -144.765625 C 63.242188 -144.910156 62.757812 -144.773438 62.34375 -144.359375 C 57.78125 -139.390625 50.875 -132.519531 41.625 -123.75 C 32.375 -114.976562 27.195312 -110.039062 26.09375 -108.9375 C 20.289062 -103.414062 15.664062 -98.304688 12.21875 -93.609375 C 9.59375 -90.296875 7.660156 -87.125 6.421875 -84.09375 C 5.453125 -82.289062 4.898438 -80.492188 4.765625 -78.703125 C 4.484375 -76.628906 5.101562 -74.9375 6.625 -73.625 C 8.144531 -72.3125 9.875 -72.070312 11.8125 -72.90625 C 11.945312 -72.90625 12.21875 -73.039062 12.625 -73.3125 C 13.039062 -73.59375 13.390625 -73.734375 13.671875 -73.734375 C 14.222656 -74.003906 14.566406 -74.003906 14.703125 -73.734375 C 15.117188 -73.316406 15.050781 -72.972656 14.5 -72.703125 C 11.875 -70.078125 9.113281 -69.519531 6.21875 -71.03125 C 3.175781 -72.414062 1.796875 -74.90625 2.078125 -78.5 C 2.484375 -81.53125 3.378906 -84.289062 4.765625 -86.78125 C 6.554688 -90.644531 9.25 -94.578125 12.84375 -98.578125 C 16.976562 -103.273438 22.640625 -109.007812 29.828125 -115.78125 C 31.203125 -117.15625 33.335938 -119.1875 36.234375 -121.875 C 39.140625 -124.570312 41.285156 -126.613281 42.671875 -128 C 50.953125 -135.726562 57.578125 -142.351562 62.546875 -147.875 L 64.828125 -150.359375 C 65.378906 -150.910156 65.863281 -151.050781 66.28125 -150.78125 C 66.832031 -150.5 67.109375 -149.875 67.109375 -148.90625 C 66.273438 -145.175781 65.613281 -141.238281 65.125 -137.09375 C 64.644531 -132.957031 64.234375 -128.09375 63.890625 -122.5 C 63.546875 -116.914062 63.238281 -112.878906 62.96875 -110.390625 C 62.96875 -109.554688 61.722656 -96.644531 59.234375 -71.65625 C 58.953125 -68.476562 58.5 -63.851562 57.875 -57.78125 C 57.257812 -51.707031 56.816406 -47.082031 56.546875 -43.90625 C 55.710938 -35.757812 54.953125 -29.890625 54.265625 -26.296875 L 54.265625 -24.859375 C 54.679688 -24.992188 55.441406 -25.613281 56.546875 -26.71875 C 62.203125 -34.3125 70.414062 -43.976562 81.1875 -55.71875 L 88.234375 -63.796875 L 90.296875 -65.859375 C 90.710938 -66.140625 91.054688 -66.140625 91.328125 -65.859375 C 91.742188 -65.441406 91.816406 -65.03125 91.546875 -64.625 C 90.992188 -64.070312 90.300781 -63.242188 89.46875 -62.140625 C 88.644531 -61.171875 87.472656 -59.859375 85.953125 -58.203125 C 84.429688 -56.546875 83.046875 -55.023438 81.796875 -53.640625 C 80.554688 -52.253906 79.382812 -50.941406 78.28125 -49.703125 C 69.863281 -40.453125 62.203125 -31.269531 55.296875 -22.15625 C 53.773438 -20.226562 52.8125 -18.085938 52.40625 -15.734375 C 50.332031 -5.109375 48.394531 3.035156 46.59375 8.703125 C 44.113281 16.710938 40.039062 24.03125 34.375 30.65625 C 32.3125 32.863281 30.242188 34.65625 28.171875 36.03125 C 26.785156 37 25.539062 37.625 24.4375 37.90625 Z M 23.203125 34.796875 C 23.753906 35.066406 24.507812 34.859375 25.46875 34.171875 C 27.40625 32.796875 29.203125 31.070312 30.859375 29 C 35.554688 23.195312 38.9375 17.257812 41 11.1875 C 42.519531 6.90625 43.832031 2.140625 44.9375 -3.109375 C 45.632812 -5.316406 45.84375 -6.832031 45.5625 -7.65625 C 45.007812 -7.65625 44.523438 -7.3125 44.109375 -6.625 C 37.210938 3.3125 32.101562 11.457031 28.78125 17.8125 C 26.4375 21.957031 24.78125 25.410156 23.8125 28.171875 L 22.578125 32.109375 C 22.296875 33.484375 22.503906 34.378906 23.203125 34.796875 Z M 23.203125 34.796875 "/></g></g></g><g fill="#000001" fill-opacity="1"><g transform="translate(144.113843, 268.919716)"><g><path d="M 30.65625 -66.0625 C 31.070312 -66.0625 31.140625 -65.820312 30.859375 -65.34375 C 30.578125 -64.863281 29.957031 -64.625 29 -64.625 L 17.390625 -64 L 15.53125 -64 C 15.53125 -63.863281 15.492188 -63.585938 15.421875 -63.171875 C 15.359375 -62.753906 15.328125 -62.410156 15.328125 -62.140625 C 14.773438 -59.921875 14.222656 -58.257812 13.671875 -57.15625 C 12.835938 -55.5 11.800781 -54.050781 10.5625 -52.8125 C 7.664062 -50.601562 5.113281 -50.945312 2.90625 -53.84375 C 1.65625 -55.226562 1.03125 -57.367188 1.03125 -60.265625 C 1.3125 -63.171875 2.488281 -66.003906 4.5625 -68.765625 C 6.070312 -70.273438 7.3125 -70.753906 8.28125 -70.203125 C 8.5625 -70.066406 8.628906 -69.789062 8.484375 -69.375 C 9.316406 -69.65625 10.007812 -69.796875 10.5625 -69.796875 C 12.90625 -69.796875 14.425781 -68.550781 15.125 -66.0625 L 17.390625 -66.0625 C 19.460938 -66.207031 23.191406 -66.28125 28.578125 -66.28125 C 28.710938 -66.28125 29.019531 -66.242188 29.5 -66.171875 C 29.988281 -66.097656 30.375 -66.0625 30.65625 -66.0625 Z M 13.046875 -66.0625 C 12.222656 -68.414062 11.050781 -69.175781 9.53125 -68.34375 C 9.113281 -68.070312 8.90625 -67.726562 8.90625 -67.3125 C 8.90625 -66.476562 10.285156 -66.0625 13.046875 -66.0625 Z M 10.140625 -55.296875 C 12.078125 -57.085938 13.1875 -59.644531 13.46875 -62.96875 L 13.46875 -64 C 9.457031 -64.269531 7.453125 -65.375 7.453125 -67.3125 L 7.453125 -67.9375 C 5.109375 -64.757812 4.421875 -61.03125 5.390625 -56.75 C 5.660156 -55.363281 6.28125 -54.53125 7.25 -54.25 C 8.21875 -53.976562 9.179688 -54.328125 10.140625 -55.296875 Z M 10.140625 -55.296875 "/></g></g></g><g fill="#000001" fill-opacity="1"><g transform="translate(171.034057, 268.919716)"><g><path d="M 15.53125 -28.171875 C 13.050781 -28.441406 12.15625 -29.820312 12.84375 -32.3125 C 13.113281 -33.414062 13.523438 -34.242188 14.078125 -34.796875 C 15.460938 -36.722656 16.640625 -38.101562 17.609375 -38.9375 C 21.742188 -43.21875 26.367188 -47.082031 31.484375 -50.53125 L 35.625 -53.4375 C 31.894531 -54.675781 27.890625 -55.296875 23.609375 -55.296875 L 8.28125 -54.0625 C 6.625 -54.0625 5.382812 -54.195312 4.5625 -54.46875 C 1.800781 -55.300781 0.625 -56.890625 1.03125 -59.234375 C 1.445312 -63.648438 3.585938 -67.171875 7.453125 -69.796875 C 8.140625 -70.347656 9.109375 -70.484375 10.359375 -70.203125 C 11.046875 -69.929688 11.5625 -69.414062 11.90625 -68.65625 C 12.25 -67.894531 12.144531 -67.171875 11.59375 -66.484375 C 11.457031 -66.347656 11.320312 -66.175781 11.1875 -65.96875 C 11.050781 -65.757812 10.878906 -65.582031 10.671875 -65.4375 C 10.460938 -65.300781 10.285156 -65.164062 10.140625 -65.03125 C 9.453125 -64.207031 8.554688 -62.828125 7.453125 -60.890625 C 6.628906 -58.953125 7.179688 -57.914062 9.109375 -57.78125 C 10.359375 -57.507812 12.222656 -57.234375 14.703125 -56.953125 C 15.804688 -56.953125 17.359375 -56.984375 19.359375 -57.046875 C 21.367188 -57.117188 22.851562 -57.15625 23.8125 -57.15625 C 28.925781 -57.15625 33.140625 -56.46875 36.453125 -55.09375 C 37.140625 -54.8125 38.035156 -54.945312 39.140625 -55.5 L 55.71875 -65.234375 C 55.988281 -65.378906 56.742188 -65.65625 57.984375 -66.0625 C 58.535156 -66.0625 58.882812 -65.859375 59.03125 -65.453125 C 59.4375 -65.035156 59.363281 -64.6875 58.8125 -64.40625 L 48.046875 -57.984375 L 40.59375 -53.640625 C 39.757812 -53.085938 39.550781 -52.394531 39.96875 -51.5625 C 40.9375 -48.945312 40.726562 -46.257812 39.34375 -43.5 C 35.070312 -35.488281 28.515625 -30.378906 19.671875 -28.171875 C 18.429688 -27.890625 17.050781 -27.890625 15.53125 -28.171875 Z M 16.15625 -30.4375 C 18.363281 -30.4375 20.085938 -30.71875 21.328125 -31.28125 C 26.847656 -33.070312 31.472656 -36.382812 35.203125 -41.21875 C 36.304688 -42.320312 37.207031 -43.835938 37.90625 -45.765625 L 38.515625 -47.84375 C 38.515625 -48.664062 38.445312 -49.285156 38.3125 -49.703125 C 38.3125 -51.222656 37.625 -51.566406 36.25 -50.734375 C 29.34375 -46.597656 23.054688 -41.5625 17.390625 -35.625 C 16.835938 -35.070312 16.492188 -34.585938 16.359375 -34.171875 C 16.085938 -33.898438 15.8125 -33.488281 15.53125 -32.9375 C 15.113281 -32.238281 15.007812 -31.644531 15.21875 -31.15625 C 15.425781 -30.675781 15.738281 -30.4375 16.15625 -30.4375 Z M 16.15625 -30.4375 "/></g></g></g><g fill="#000001" fill-opacity="1"><g transform="translate(226.116985, 268.919716)"><g><path d="M 15.53125 -28.171875 C 13.050781 -28.441406 12.15625 -29.820312 12.84375 -32.3125 C 13.113281 -33.414062 13.523438 -34.242188 14.078125 -34.796875 C 15.460938 -36.722656 16.640625 -38.101562 17.609375 -38.9375 C 21.742188 -43.21875 26.367188 -47.082031 31.484375 -50.53125 L 35.625 -53.4375 C 31.894531 -54.675781 27.890625 -55.296875 23.609375 -55.296875 L 8.28125 -54.0625 C 6.625 -54.0625 5.382812 -54.195312 4.5625 -54.46875 C 1.800781 -55.300781 0.625 -56.890625 1.03125 -59.234375 C 1.445312 -63.648438 3.585938 -67.171875 7.453125 -69.796875 C 8.140625 -70.347656 9.109375 -70.484375 10.359375 -70.203125 C 11.046875 -69.929688 11.5625 -69.414062 11.90625 -68.65625 C 12.25 -67.894531 12.144531 -67.171875 11.59375 -66.484375 C 11.457031 -66.347656 11.320312 -66.175781 11.1875 -65.96875 C 11.050781 -65.757812 10.878906 -65.582031 10.671875 -65.4375 C 10.460938 -65.300781 10.285156 -65.164062 10.140625 -65.03125 C 9.453125 -64.207031 8.554688 -62.828125 7.453125 -60.890625 C 6.628906 -58.953125 7.179688 -57.914062 9.109375 -57.78125 C 10.359375 -57.507812 12.222656 -57.234375 14.703125 -56.953125 C 15.804688 -56.953125 17.359375 -56.984375 19.359375 -57.046875 C 21.367188 -57.117188 22.851562 -57.15625 23.8125 -57.15625 C 28.925781 -57.15625 33.140625 -56.46875 36.453125 -55.09375 C 37.140625 -54.8125 38.035156 -54.945312 39.140625 -55.5 L 55.71875 -65.234375 C 55.988281 -65.378906 56.742188 -65.65625 57.984375 -66.0625 C 58.535156 -66.0625 58.882812 -65.859375 59.03125 -65.453125 C 59.4375 -65.035156 59.363281 -64.6875 58.8125 -64.40625 L 48.046875 -57.984375 L 40.59375 -53.640625 C 39.757812 -53.085938 39.550781 -52.394531 39.96875 -51.5625 C 40.9375 -48.945312 40.726562 -46.257812 39.34375 -43.5 C 35.070312 -35.488281 28.515625 -30.378906 19.671875 -28.171875 C 18.429688 -27.890625 17.050781 -27.890625 15.53125 -28.171875 Z M 16.15625 -30.4375 C 18.363281 -30.4375 20.085938 -30.71875 21.328125 -31.28125 C 26.847656 -33.070312 31.472656 -36.382812 35.203125 -41.21875 C 36.304688 -42.320312 37.207031 -43.835938 37.90625 -45.765625 L 38.515625 -47.84375 C 38.515625 -48.664062 38.445312 -49.285156 38.3125 -49.703125 C 38.3125 -51.222656 37.625 -51.566406 36.25 -50.734375 C 29.34375 -46.597656 23.054688 -41.5625 17.390625 -35.625 C 16.835938 -35.070312 16.492188 -34.585938 16.359375 -34.171875 C 16.085938 -33.898438 15.8125 -33.488281 15.53125 -32.9375 C 15.113281 -32.238281 15.007812 -31.644531 15.21875 -31.15625 C 15.425781 -30.675781 15.738281 -30.4375 16.15625 -30.4375 Z M 16.15625 -30.4375 "/></g></g></g><g fill="#000001" fill-opacity="1"><g transform="translate(281.199912, 268.919716)"><g><path d="M 24.640625 -56.953125 C 21.609375 -56.128906 19.882812 -57.300781 19.46875 -60.46875 C 19.332031 -62.132812 19.46875 -64 19.875 -66.0625 C 20.15625 -67.582031 20.226562 -68.550781 20.09375 -68.96875 C 19.8125 -68.96875 19.53125 -68.894531 19.25 -68.75 C 18.976562 -68.613281 18.773438 -68.476562 18.640625 -68.34375 C 18.503906 -68.207031 18.332031 -68.035156 18.125 -67.828125 C 17.914062 -67.617188 17.742188 -67.445312 17.609375 -67.3125 C 14.429688 -64.550781 11.53125 -62.546875 8.90625 -61.296875 C 7.9375 -60.742188 6.96875 -60.265625 6 -59.859375 C 4.625 -59.441406 3.554688 -59.578125 2.796875 -60.265625 C 2.035156 -60.953125 1.796875 -61.988281 2.078125 -63.375 C 2.078125 -63.65625 2.210938 -64.207031 2.484375 -65.03125 C 3.316406 -66.96875 4.5625 -68.554688 6.21875 -69.796875 C 9.113281 -71.867188 12.007812 -71.867188 14.90625 -69.796875 L 15.125 -69.59375 L 15.328125 -69.59375 C 16.296875 -68.894531 17.125 -68.894531 17.8125 -69.59375 L 21.75 -73.53125 C 22.4375 -74.082031 22.988281 -74.148438 23.40625 -73.734375 C 23.820312 -73.316406 23.890625 -72.972656 23.609375 -72.703125 C 23.472656 -71.585938 23.128906 -69.925781 22.578125 -67.71875 C 21.890625 -65.101562 21.613281 -62.6875 21.75 -60.46875 C 21.882812 -59.363281 22.570312 -58.882812 23.8125 -59.03125 C 25.882812 -59.300781 31.410156 -61.578125 40.390625 -65.859375 C 40.941406 -65.859375 41.285156 -65.722656 41.421875 -65.453125 C 41.703125 -64.753906 41.359375 -64.128906 40.390625 -63.578125 C 33.203125 -59.992188 27.953125 -57.785156 24.640625 -56.953125 Z M 7.046875 -62.546875 C 8.554688 -63.097656 10.144531 -63.859375 11.8125 -64.828125 C 12.769531 -65.515625 13.320312 -66.066406 13.46875 -66.484375 C 13.601562 -66.753906 13.425781 -66.992188 12.9375 -67.203125 C 12.457031 -67.410156 11.875 -67.515625 11.1875 -67.515625 C 10.082031 -67.242188 9.253906 -66.96875 8.703125 -66.6875 C 7.046875 -65.445312 5.941406 -64.132812 5.390625 -62.75 C 6.078125 -62.195312 6.628906 -62.128906 7.046875 -62.546875 Z M 7.046875 -62.546875 "/></g></g></g><g clip-path="url(#5837d65816)"><g clip-path="url(#0a6e3695cb)"><g clip-path="url(#5e1c19bce6)"><path fill="#c6488c" d="M 213.90625 168.300781 C 215.1875 167.625 216.257812 166.839844 217.457031 166.472656 C 220.503906 165.53125 221.9375 166.523438 222.269531 169.78125 C 222.398438 171.007812 221.863281 172.5625 221.101562 173.566406 C 219.664062 175.457031 218.019531 177.175781 216.191406 178.695312 C 213.746094 180.71875 211.21875 182.6875 208.074219 184.292969 C 207.535156 183.296875 206.832031 182.503906 206.664062 181.613281 C 205.917969 177.660156 205.058594 173.695312 205.390625 169.636719 C 205.5 168.289062 205.859375 166.9375 206.269531 165.640625 C 206.628906 164.5 207.207031 163.296875 208.566406 163.148438 C 210.074219 162.980469 211.140625 163.902344 211.925781 165.117188 C 212.570312 166.117188 213.183594 167.136719 213.90625 168.300781 " fill-opacity="1" fill-rule="nonzero"/></g></g></g><g fill="#737373" fill-opacity="1"><g transform="translate(145.424283, 268.917445)"><g><path d="M 3.46875 -4.6875 L 8.09375 -4.6875 L 5.796875 -10.5625 Z M 11.375 0 L 9.953125 0 L 8.59375 -3.46875 L 2.984375 -3.46875 L 1.609375 0 L 0.1875 0 L 5.796875 -13.625 Z M 11.375 0 "/></g></g></g><g fill="#737373" fill-opacity="1"><g transform="translate(161.776444, 268.917445)"><g><path d="M 13.109375 -3.90625 C 12.628906 -2.675781 11.851562 -1.691406 10.78125 -0.953125 C 9.695312 -0.191406 8.503906 0.1875 7.203125 0.1875 C 5.441406 0.1875 3.9375 -0.460938 2.6875 -1.765625 C 1.457031 -3.035156 0.84375 -4.566406 0.84375 -6.359375 C 0.84375 -7.242188 1.003906 -8.085938 1.328125 -8.890625 C 1.648438 -9.671875 2.101562 -10.363281 2.6875 -10.96875 C 3.9375 -12.269531 5.441406 -12.921875 7.203125 -12.921875 C 8.503906 -12.921875 9.691406 -12.550781 10.765625 -11.8125 C 11.835938 -11.0625 12.613281 -10.082031 13.09375 -8.875 L 11.640625 -8.875 C 10.953125 -10.132812 9.925781 -10.96875 8.5625 -11.375 C 8.113281 -11.5 7.597656 -11.5625 7.015625 -11.5625 C 6.421875 -11.5625 5.820312 -11.425781 5.21875 -11.15625 C 4.601562 -10.863281 4.070312 -10.484375 3.625 -10.015625 C 2.644531 -9.003906 2.15625 -7.785156 2.15625 -6.359375 C 2.15625 -4.941406 2.644531 -3.726562 3.625 -2.71875 C 4.601562 -1.675781 5.796875 -1.15625 7.203125 -1.15625 C 8.148438 -1.15625 9.023438 -1.40625 9.828125 -1.90625 C 10.609375 -2.40625 11.21875 -3.070312 11.65625 -3.90625 Z M 13.109375 -3.90625 "/></g></g></g><g fill="#737373" fill-opacity="1"><g transform="translate(180.228528, 268.917445)"><g><path d="M 13.109375 -3.90625 C 12.628906 -2.675781 11.851562 -1.691406 10.78125 -0.953125 C 9.695312 -0.191406 8.503906 0.1875 7.203125 0.1875 C 5.441406 0.1875 3.9375 -0.460938 2.6875 -1.765625 C 1.457031 -3.035156 0.84375 -4.566406 0.84375 -6.359375 C 0.84375 -7.242188 1.003906 -8.085938 1.328125 -8.890625 C 1.648438 -9.671875 2.101562 -10.363281 2.6875 -10.96875 C 3.9375 -12.269531 5.441406 -12.921875 7.203125 -12.921875 C 8.503906 -12.921875 9.691406 -12.550781 10.765625 -11.8125 C 11.835938 -11.0625 12.613281 -10.082031 13.09375 -8.875 L 11.640625 -8.875 C 10.953125 -10.132812 9.925781 -10.96875 8.5625 -11.375 C 8.113281 -11.5 7.597656 -11.5625 7.015625 -11.5625 C 6.421875 -11.5625 5.820312 -11.425781 5.21875 -11.15625 C 4.601562 -10.863281 4.070312 -10.484375 3.625 -10.015625 C 2.644531 -9.003906 2.15625 -7.785156 2.15625 -6.359375 C 2.15625 -4.941406 2.644531 -3.726562 3.625 -2.71875 C 4.601562 -1.675781 5.796875 -1.15625 7.203125 -1.15625 C 8.148438 -1.15625 9.023438 -1.40625 9.828125 -1.90625 C 10.609375 -2.40625 11.21875 -3.070312 11.65625 -3.90625 Z M 13.109375 -3.90625 "/></g></g></g><g fill="#737373" fill-opacity="1"><g transform="translate(198.680612, 268.917445)"><g><path d="M 8.984375 0 L 1.40625 0 L 1.40625 -12.75 L 8.984375 -12.75 L 8.984375 -11.53125 L 2.71875 -11.53125 L 2.71875 -7 L 8.796875 -7 L 8.796875 -5.75 L 2.71875 -5.75 L 2.71875 -1.21875 L 8.984375 -1.21875 Z M 8.984375 0 "/></g></g></g><g fill="#737373" fill-opacity="1"><g transform="translate(213.851573, 268.917445)"><g><path d="M 4.953125 -6.015625 C 2.347656 -6.617188 1.046875 -7.734375 1.046875 -9.359375 C 1.046875 -10.554688 1.46875 -11.457031 2.3125 -12.0625 C 3.144531 -12.644531 4.125 -12.9375 5.25 -12.9375 C 7.738281 -12.9375 9.210938 -12.007812 9.671875 -10.15625 L 8.25 -10.15625 C 8 -11.257812 7 -11.8125 5.25 -11.8125 C 4.019531 -11.8125 3.164062 -11.445312 2.6875 -10.71875 C 2.5 -10.445312 2.40625 -10.101562 2.40625 -9.6875 C 2.40625 -8.90625 2.828125 -8.300781 3.671875 -7.875 C 4.078125 -7.664062 4.925781 -7.390625 6.21875 -7.046875 C 7.519531 -6.710938 8.46875 -6.335938 9.0625 -5.921875 C 9.875 -5.347656 10.28125 -4.539062 10.28125 -3.5 C 10.28125 -2.21875 9.769531 -1.242188 8.75 -0.578125 C 7.90625 -0.0234375 6.859375 0.25 5.609375 0.25 C 2.785156 0.25 1.144531 -0.828125 0.6875 -2.984375 L 2.25 -2.984375 C 2.488281 -1.628906 3.609375 -0.953125 5.609375 -0.953125 C 7.035156 -0.953125 8.03125 -1.347656 8.59375 -2.140625 C 8.8125 -2.453125 8.921875 -2.875 8.921875 -3.40625 C 8.921875 -3.9375 8.71875 -4.367188 8.3125 -4.703125 C 7.71875 -5.179688 6.597656 -5.617188 4.953125 -6.015625 Z M 4.953125 -6.015625 "/></g></g></g><g fill="#737373" fill-opacity="1"><g transform="translate(229.397514, 268.917445)"><g><path d="M 12.640625 -6.40625 C 12.640625 -7.84375 12.125 -9.078125 11.09375 -10.109375 C 10.070312 -11.128906 8.835938 -11.640625 7.390625 -11.640625 C 5.953125 -11.640625 4.71875 -11.128906 3.6875 -10.109375 C 2.664062 -9.078125 2.15625 -7.84375 2.15625 -6.40625 C 2.15625 -4.957031 2.664062 -3.722656 3.6875 -2.703125 C 4.71875 -1.671875 5.953125 -1.15625 7.390625 -1.15625 C 8.835938 -1.15625 10.070312 -1.671875 11.09375 -2.703125 C 12.125 -3.722656 12.640625 -4.957031 12.640625 -6.40625 Z M 13.953125 -6.40625 C 13.953125 -5.507812 13.78125 -4.660156 13.4375 -3.859375 C 13.09375 -3.054688 12.625 -2.363281 12.03125 -1.78125 C 11.4375 -1.175781 10.738281 -0.707031 9.9375 -0.375 C 9.132812 -0.0195312 8.285156 0.15625 7.390625 0.15625 C 6.484375 0.15625 5.640625 -0.0195312 4.859375 -0.375 C 4.054688 -0.707031 3.363281 -1.175781 2.78125 -1.78125 C 2.175781 -2.363281 1.707031 -3.054688 1.375 -3.859375 C 1.019531 -4.660156 0.84375 -5.507812 0.84375 -6.40625 C 0.84375 -7.3125 1.019531 -8.164062 1.375 -8.96875 C 1.707031 -9.757812 2.175781 -10.453125 2.78125 -11.046875 C 3.363281 -11.628906 4.054688 -12.097656 4.859375 -12.453125 C 5.640625 -12.785156 6.484375 -12.953125 7.390625 -12.953125 C 8.285156 -12.953125 9.132812 -12.785156 9.9375 -12.453125 C 10.738281 -12.097656 11.4375 -11.628906 12.03125 -11.046875 C 12.625 -10.453125 13.09375 -9.757812 13.4375 -8.96875 C 13.78125 -8.164062 13.953125 -7.3125 13.953125 -6.40625 Z M 13.953125 -6.40625 "/></g></g></g><g fill="#737373" fill-opacity="1"><g transform="translate(248.974543, 268.917445)"><g><path d="M 2.71875 -6.296875 L 5.6875 -6.296875 C 6.414062 -6.296875 7.019531 -6.546875 7.5 -7.046875 C 7.988281 -7.554688 8.234375 -8.1875 8.234375 -8.9375 C 8.234375 -9.675781 8 -10.289062 7.53125 -10.78125 C 7.070312 -11.257812 6.457031 -11.5 5.6875 -11.5 L 2.71875 -11.5 Z M 9.546875 -8.90625 C 9.546875 -7.789062 9.148438 -6.863281 8.359375 -6.125 C 7.660156 -5.476562 6.816406 -5.125 5.828125 -5.0625 L 9.75 0 L 7.984375 0 L 4.25 -5.046875 L 2.71875 -5.046875 L 2.71875 0 L 1.40625 0 L 1.40625 -12.75 L 5.5 -12.75 C 6.632812 -12.75 7.585938 -12.394531 8.359375 -11.6875 C 9.148438 -10.9375 9.546875 -10.007812 9.546875 -8.90625 Z M 9.546875 -8.90625 "/></g></g></g><g fill="#737373" fill-opacity="1"><g transform="translate(263.958013, 268.917445)"><g><path d="M 2.71875 0 L 1.40625 0 L 1.40625 -12.75 L 2.71875 -12.75 Z M 2.71875 0 "/></g></g></g><g fill="#737373" fill-opacity="1"><g transform="translate(272.866729, 268.917445)"><g><path d="M 12.640625 -6.40625 C 12.640625 -7.84375 12.125 -9.078125 11.09375 -10.109375 C 10.070312 -11.128906 8.835938 -11.640625 7.390625 -11.640625 C 5.953125 -11.640625 4.71875 -11.128906 3.6875 -10.109375 C 2.664062 -9.078125 2.15625 -7.84375 2.15625 -6.40625 C 2.15625 -4.957031 2.664062 -3.722656 3.6875 -2.703125 C 4.71875 -1.671875 5.953125 -1.15625 7.390625 -1.15625 C 8.835938 -1.15625 10.070312 -1.671875 11.09375 -2.703125 C 12.125 -3.722656 12.640625 -4.957031 12.640625 -6.40625 Z M 13.953125 -6.40625 C 13.953125 -5.507812 13.78125 -4.660156 13.4375 -3.859375 C 13.09375 -3.054688 12.625 -2.363281 12.03125 -1.78125 C 11.4375 -1.175781 10.738281 -0.707031 9.9375 -0.375 C 9.132812 -0.0195312 8.285156 0.15625 7.390625 0.15625 C 6.484375 0.15625 5.640625 -0.0195312 4.859375 -0.375 C 4.054688 -0.707031 3.363281 -1.175781 2.78125 -1.78125 C 2.175781 -2.363281 1.707031 -3.054688 1.375 -3.859375 C 1.019531 -4.660156 0.84375 -5.507812 0.84375 -6.40625 C 0.84375 -7.3125 1.019531 -8.164062 1.375 -8.96875 C 1.707031 -9.757812 2.175781 -10.453125 2.78125 -11.046875 C 3.363281 -11.628906 4.054688 -12.097656 4.859375 -12.453125 C 5.640625 -12.785156 6.484375 -12.953125 7.390625 -12.953125 C 8.285156 -12.953125 9.132812 -12.785156 9.9375 -12.453125 C 10.738281 -12.097656 11.4375 -11.628906 12.03125 -11.046875 C 12.625 -10.453125 13.09375 -9.757812 13.4375 -8.96875 C 13.78125 -8.164062 13.953125 -7.3125 13.953125 -6.40625 Z M 13.953125 -6.40625 "/></g></g></g><g fill="#737373" fill-opacity="1"><g transform="translate(292.443757, 268.917445)"><g><path d="M 4.953125 -6.015625 C 2.347656 -6.617188 1.046875 -7.734375 1.046875 -9.359375 C 1.046875 -10.554688 1.46875 -11.457031 2.3125 -12.0625 C 3.144531 -12.644531 4.125 -12.9375 5.25 -12.9375 C 7.738281 -12.9375 9.210938 -12.007812 9.671875 -10.15625 L 8.25 -10.15625 C 8 -11.257812 7 -11.8125 5.25 -11.8125 C 4.019531 -11.8125 3.164062 -11.445312 2.6875 -10.71875 C 2.5 -10.445312 2.40625 -10.101562 2.40625 -9.6875 C 2.40625 -8.90625 2.828125 -8.300781 3.671875 -7.875 C 4.078125 -7.664062 4.925781 -7.390625 6.21875 -7.046875 C 7.519531 -6.710938 8.46875 -6.335938 9.0625 -5.921875 C 9.875 -5.347656 10.28125 -4.539062 10.28125 -3.5 C 10.28125 -2.21875 9.769531 -1.242188 8.75 -0.578125 C 7.90625 -0.0234375 6.859375 0.25 5.609375 0.25 C 2.785156 0.25 1.144531 -0.828125 0.6875 -2.984375 L 2.25 -2.984375 C 2.488281 -1.628906 3.609375 -0.953125 5.609375 -0.953125 C 7.035156 -0.953125 8.03125 -1.347656 8.59375 -2.140625 C 8.8125 -2.453125 8.921875 -2.875 8.921875 -3.40625 C 8.921875 -3.9375 8.71875 -4.367188 8.3125 -4.703125 C 7.71875 -5.179688 6.597656 -5.617188 4.953125 -6.015625 Z M 4.953125 -6.015625 "/></g></g></g></svg>